# xmcd
#
# Track frame offsets: 
#        150
#        21375
#        44592
#        64930
#        81912
#        98342
#        109888
#        123703
#        144596
#        164964
#        192888
#        207437
#        241058
#
# Disc length: 3345 seconds
#
# Revision: 2
# Processed by: cddbd v1.5.2PL0 Copyright (c) Steve Scherf et al.
# Submitted via: ExactAudioCopy v0.99pb5
#
DISCID=c10d0f0d
DTITLE=Buddy Guy and Junior Wells - Chicago Blues Festival 1964
DYEAR=1964
DGENRE=Blues
TTITLE0=Buddy's Blues
TTITLE1=Stormy Monday
TTITLE2=Every Day I Have The Blues
TTITLE3=Woman Blues
TTITLE4=Satisfaction
TTITLE5=Messin' With The Kid
TTITLE6=No Use Cryin'
TTITLE7=Just To Be With You
TTITLE8=Junior's Shuffle
TTITLE9=Out Of Site
TTITLE10=Broken Hearted Blues
TTITLE11=Stone Crazy
TTITLE12=Slop Around
EXTD=
EXTT0=
EXTT1=
EXTT2=
EXTT3=
EXTT4=
EXTT5=
EXTT6=
EXTT7=
EXTT8=
EXTT9=
EXTT10=
EXTT11=
EXTT12=
PLAYORDER=
